<?xml version="1.0" encoding="UTF-8" standalone="no"?>
<!DOCTYPE svg PUBLIC "-//W3C//DTD SVG 1.1//EN"
 "http://www.w3.org/Graphics/SVG/1.1/DTD/svg11.dtd">
<!-- Generated by graphviz version 15.0.0 (20260523.1842)
 -->
<!-- Title: G Pages: 1 -->
<svg width="640pt" height="44pt"
 viewBox="0.00 0.00 640.00 44.00" xmlns="http://www.w3.org/2000/svg" xmlns:xlink="http://www.w3.org/1999/xlink">
<g id="graph0" class="graph" transform="scale(1 1) rotate(0) translate(4 40)">
<title>G</title>
<polygon fill="white" stroke="none" points="-4,4 -4,-40 636.08,-40 636.08,4 -4,4"/>
<!-- Markdown -->
<g id="node1" class="node">
<title>Markdown</title>
<path fill="#dbeafe" stroke="black" d="M68.58,-36C68.58,-36 12,-36 12,-36 6,-36 0,-30 0,-24 0,-24 0,-12 0,-12 0,-6 6,0 12,0 12,0 68.58,0 68.58,0 74.58,0 80.58,-6 80.58,-12 80.58,-12 80.58,-24 80.58,-24 80.58,-30 74.58,-36 68.58,-36"/>
<text xml:space="preserve" text-anchor="middle" x="40.29" y="-13.8" font-family="Arial" font-size="14.00">Markdown</text>
</g>
<!-- Remark Plugin -->
<g id="node2" class="node">
<title>Remark Plugin</title>
<path fill="#f0f9ff" stroke="black" d="M240.19,-36C240.19,-36 156.37,-36 156.37,-36 150.37,-36 144.37,-30 144.37,-24 144.37,-24 144.37,-12 144.37,-12 144.37,-6 150.37,0 156.37,0 156.37,0 240.19,0 240.19,0 246.19,0 252.19,-6 252.19,-12 252.19,-12 252.19,-24 252.19,-24 252.19,-30 246.19,-36 240.19,-36"/>
<text xml:space="preserve" text-anchor="middle" x="198.28" y="-13.8" font-family="Arial" font-size="14.00">Remark Plugin</text>
</g>
<!-- Markdown&#45;&gt;Remark Plugin -->
<g id="edge1" class="edge">
<title>Markdown&#45;&gt;Remark Plugin</title>
<path fill="none" stroke="black" d="M81.06,-18C96.75,-18 115.2,-18 132.71,-18"/>
<polygon fill="black" stroke="black" points="132.53,-21.5 142.53,-18 132.53,-14.5 132.53,-21.5"/>
<text xml:space="preserve" text-anchor="middle" x="112.48" y="-21" font-family="Arial" font-size="10.00"> parse</text>
</g>
<!-- React Component -->
<g id="node3" class="node">
<title>React Component</title>
<path fill="#f0f9ff" stroke="black" d="M450.04,-36C450.04,-36 345.2,-36 345.2,-36 339.2,-36 333.2,-30 333.2,-24 333.2,-24 333.2,-12 333.2,-12 333.2,-6 339.2,0 345.2,0 345.2,0 450.04,0 450.04,0 456.04,0 462.04,-6 462.04,-12 462.04,-12 462.04,-24 462.04,-24 462.04,-30 456.04,-36 450.04,-36"/>
<text xml:space="preserve" text-anchor="middle" x="397.62" y="-13.8" font-family="Arial" font-size="14.00">React Component</text>
</g>
<!-- Remark Plugin&#45;&gt;React Component -->
<g id="edge2" class="edge">
<title>Remark Plugin&#45;&gt;React Component</title>
<path fill="none" stroke="black" d="M252.68,-18C273.87,-18 298.62,-18 321.55,-18"/>
<polygon fill="black" stroke="black" points="321.48,-21.5 331.48,-18 321.48,-14.5 321.48,-21.5"/>
<text xml:space="preserve" text-anchor="middle" x="292.69" y="-21" font-family="Arial" font-size="10.00"> transform</text>
</g>
<!-- SVG Diagram -->
<g id="node4" class="node">
<title>SVG Diagram</title>
<path fill="#d1fae5" stroke="black" d="M620.08,-36C620.08,-36 541.72,-36 541.72,-36 535.72,-36 529.72,-30 529.72,-24 529.72,-24 529.72,-12 529.72,-12 529.72,-6 535.72,0 541.72,0 541.72,0 620.08,0 620.08,0 626.08,0 632.08,-6 632.08,-12 632.08,-12 632.08,-24 632.08,-24 632.08,-30 626.08,-36 620.08,-36"/>
<text xml:space="preserve" text-anchor="middle" x="580.9" y="-13.8" font-family="Arial" font-size="14.00">SVG Diagram</text>
</g>
<!-- React Component&#45;&gt;SVG Diagram -->
<g id="edge3" class="edge">
<title>React Component&#45;&gt;SVG Diagram</title>
<path fill="none" stroke="black" d="M462.53,-18C480.51,-18 500.03,-18 517.89,-18"/>
<polygon fill="black" stroke="black" points="517.85,-21.5 527.85,-18 517.85,-14.5 517.85,-21.5"/>
<text xml:space="preserve" text-anchor="middle" x="495.88" y="-21" font-family="Arial" font-size="10.00"> render</text>
</g>
</g>
</svg>
